<svg width="24" height="24" viewBox="0 0 24 24" fill="none" xmlns="http://www.w3.org/2000/svg">
<path d="M21 13.8V3M21 21V17.4M11 5.7H5.5C4.565 5.7 4.098 5.7 3.75 5.8809C3.52199 5.99938 3.33265 6.16979 3.201 6.375C3 6.6882 3 7.1085 3 7.95C3 8.7915 3 9.2118 3.201 9.525C3.33265 9.73021 3.52199 9.90062 3.75 10.0191C4.098 10.2 4.565 10.2 5.5 10.2H14.5C15.435 10.2 15.902 10.2 16.25 10.0191C16.478 9.90062 16.6674 9.73021 16.799 9.525C17 9.2118 17 8.7915 17 7.95C17 7.1085 17 6.6882 16.799 6.375C16.6674 6.16979 16.478 5.99938 16.25 5.8809C15.97 5.736 15.614 5.7072 15 5.7009" stroke="#1C222B" stroke-width="1.5" strokeLinecap="round"/>
<path d="M17 16.0499C17 15.2084 17 14.7881 16.799 14.4749C16.6674 14.2697 16.478 14.0993 16.25 13.9808C15.902 13.7999 15.435 13.7999 14.5 13.7999H8.5C7.565 13.7999 7.098 13.7999 6.75 13.9808C6.52199 14.0993 6.33265 14.2697 6.201 14.4749C6 14.7881 6 15.2084 6 16.0499C6 16.8914 6 17.3117 6.201 17.6249C6.33265 17.8301 6.52199 18.0005 6.75 18.119C7.098 18.2999 7.565 18.2999 8.5 18.2999H14.5C15.435 18.2999 15.902 18.2999 16.25 18.119C16.478 18.0005 16.6674 17.8301 16.799 17.6249C17 17.3117 17 16.8914 17 16.0499Z" stroke="#1C222B" stroke-width="1.5"/>
</svg>
