<svg
    width="90"
    height="90"
    viewBox="0 0 90 90"
    fill="none"
    xmlns="http://www.w3.org/2000/svg"
>
    <g clip-path="url(#clip0_1411_6469)">
        <path
            d="M44.3729 49.8473C46.5226 49.8473 48.2653 48.1046 48.2653 45.9549C48.2653 43.8052 46.5226 42.0625 44.3729 42.0625C42.2232 42.0625 40.4805 43.8052 40.4805 45.9549C40.4805 48.1046 42.2232 49.8473 44.3729 49.8473Z"
            fill="#147BD1"
        ></path>
        <path
            d="M42.8426 45.0322C42.1829 45.8107 37.446 42.8551 32.287 38.435C27.1279 34.0148 23.4202 29.8189 24.08 29.0404C24.7397 28.262 29.4765 31.2175 34.6356 35.6377C39.7947 40.0579 43.5023 44.2669 42.8426 45.0322Z"
            fill="#147BD1"
        ></path>
        <path
            d="M45.8357 45.0317C46.4954 45.8101 52.433 41.8782 59.0302 36.2573C65.6275 30.6364 70.4567 25.451 69.797 24.6725C69.1373 23.894 63.1997 27.826 56.6024 33.4469C50.0052 39.0677 45.176 44.2664 45.8357 45.0317Z"
            fill="#147BD1"
        ></path>
        <path
            d="M44.9798 89.9995C36.0788 89.9969 27.3786 87.3551 19.979 82.4081C12.5795 77.4612 6.81291 70.4312 3.40849 62.2071C0.00406775 53.983 -0.885333 44.9341 0.852746 36.2045C2.59083 27.4749 6.87833 19.4568 13.1731 13.1638C19.468 6.87085 27.4874 2.58569 36.2174 0.850173C44.9475 -0.885347 53.9962 0.00670206 62.2193 3.41353C70.4424 6.82036 77.4707 12.589 82.4155 19.99C87.3603 27.391 89.9995 36.092 89.9995 44.9929C89.9891 56.9285 85.2421 68.372 76.8012 76.8105C68.3602 85.249 56.9153 89.9926 44.9798 89.9995ZM44.9798 5.09264C37.0893 5.09785 29.3776 7.4424 22.8195 11.8299C16.2614 16.2173 11.1514 22.4507 8.13549 29.742C5.11958 37.0333 4.33318 45.0551 5.87572 52.7933C7.41827 60.5314 11.2205 67.6385 16.8017 73.216C22.3829 78.7935 29.4925 82.5911 37.2317 84.1285C44.9709 85.6659 52.9921 84.8742 60.2814 81.8535C67.5707 78.8327 73.8007 73.7186 78.1839 67.1576C82.567 60.5966 84.9064 52.8834 84.9064 44.9929C84.8925 34.4104 80.6806 24.2658 73.1952 16.7853C65.7097 9.30479 55.5623 5.09962 44.9798 5.09264Z"
            fill="#147BD1"
        ></path>
        <path
            d="M44.9792 14.7761C44.8004 14.7851 44.6217 14.7575 44.454 14.6953C44.2862 14.633 44.1328 14.5372 44.0032 14.4138C43.8736 14.2903 43.7705 14.1418 43.7001 13.9773C43.6297 13.8128 43.5935 13.6356 43.5938 13.4566V8.52189C43.5938 8.1597 43.7376 7.81234 43.9937 7.55624C44.2498 7.30013 44.5972 7.15625 44.9594 7.15625C45.3216 7.15625 45.6689 7.30013 45.925 7.55624C46.1811 7.81234 46.325 8.1597 46.325 8.52189V13.4698C46.3233 13.6442 46.287 13.8166 46.2183 13.9769C46.1496 14.1372 46.0498 14.2823 45.9246 14.4037C45.7994 14.5252 45.6514 14.6207 45.4892 14.6846C45.3269 14.7485 45.1536 14.7796 44.9792 14.7761Z"
            fill="#3AABD8"
        ></path>
        <path
            d="M44.9792 14.7761C44.8004 14.7851 44.6217 14.7575 44.454 14.6953C44.2862 14.633 44.1328 14.5372 44.0032 14.4138C43.8736 14.2903 43.7705 14.1418 43.7001 13.9773C43.6297 13.8128 43.5935 13.6356 43.5938 13.4566V8.52189C43.5938 8.1597 43.7376 7.81234 43.9937 7.55624C44.2498 7.30013 44.5972 7.15625 44.9594 7.15625C45.3216 7.15625 45.6689 7.30013 45.925 7.55624C46.1811 7.81234 46.325 8.1597 46.325 8.52189V13.4698C46.3233 13.6442 46.287 13.8166 46.2183 13.9769C46.1496 14.1372 46.0498 14.2823 45.9246 14.4037C45.7994 14.5252 45.6514 14.6207 45.4892 14.6846C45.3269 14.7485 45.1536 14.7796 44.9792 14.7761Z"
            fill="#147BD1"
        ></path>
        <path
            d="M44.9792 82.8606C44.8004 82.8695 44.6217 82.842 44.454 82.7798C44.2862 82.7175 44.1328 82.6217 44.0032 82.4983C43.8736 82.3748 43.7705 82.2263 43.7001 82.0618C43.6297 81.8973 43.5935 81.7201 43.5938 81.5411V76.5668C43.5938 76.2046 43.7376 75.8573 43.9937 75.6011C44.2498 75.345 44.5972 75.2012 44.9594 75.2012C45.3216 75.2012 45.6689 75.345 45.925 75.6011C46.1811 75.8573 46.325 76.2046 46.325 76.5668V81.5016C46.3304 81.6804 46.2994 81.8584 46.2339 82.0249C46.1683 82.1914 46.0696 82.3427 45.9437 82.4699C45.8178 82.597 45.6674 82.6972 45.5016 82.7643C45.3358 82.8315 45.158 82.8643 44.9792 82.8606Z"
            fill="#147BD1"
        ></path>
        <path
            d="M14.7766 44.9786C14.7766 45.3285 14.6376 45.6641 14.3902 45.9116C14.1427 46.159 13.8071 46.298 13.4572 46.298H8.48282C8.12063 46.298 7.77328 46.1541 7.51717 45.898C7.26107 45.6419 7.11719 45.2946 7.11719 44.9324C7.11719 44.5702 7.26107 44.2228 7.51717 43.9667C7.77328 43.7106 8.12063 43.5667 8.48282 43.5667H13.4308C13.6143 43.5626 13.7967 43.5968 13.9662 43.6672C14.1358 43.7376 14.2888 43.8426 14.4155 43.9754C14.5421 44.1083 14.6397 44.2662 14.7019 44.4389C14.7641 44.6116 14.7895 44.7954 14.7766 44.9786Z"
            fill="#147BD1"
        ></path>
        <path
            d="M82.8606 44.9789C82.8606 45.3289 82.7216 45.6645 82.4741 45.9119C82.2267 46.1594 81.8911 46.2984 81.5412 46.2984H76.5668C76.2046 46.2984 75.8573 46.1545 75.6012 45.8984C75.3451 45.6423 75.2012 45.2949 75.2012 44.9327C75.2012 44.5705 75.3451 44.2232 75.6012 43.9671C75.8573 43.711 76.2046 43.5671 76.5668 43.5671H81.5016C81.6862 43.5611 81.87 43.5939 82.0412 43.6635C82.2123 43.733 82.3669 43.8377 82.495 43.9708C82.6231 44.1039 82.7219 44.2624 82.7849 44.436C82.8478 44.6097 82.8736 44.7947 82.8606 44.9789Z"
            fill="#147BD1"
        ></path>
        <path
            d="M23.8685 66.579C23.9304 66.6403 23.9794 66.7133 24.0129 66.7937C24.0464 66.8741 24.0637 66.9603 24.0637 67.0474C24.0637 67.1345 24.0464 67.2207 24.0129 67.3011C23.9794 67.3815 23.9304 67.4545 23.8685 67.5158L19.3296 71.9492C19.2026 72.0564 19.0399 72.1118 18.8738 72.1042C18.7078 72.0967 18.5508 72.0267 18.4341 71.9084C18.3174 71.79 18.2497 71.632 18.2445 71.4659C18.2393 71.2998 18.2969 71.1378 18.406 71.0124L22.9845 66.579C23.1043 66.4668 23.2623 66.4043 23.4265 66.4043C23.5907 66.4043 23.7487 66.4668 23.8685 66.579Z"
            fill="#147BD1"
        ></path>
        <path
            d="M72.5429 19.0781C72.6044 19.1383 72.6532 19.2102 72.6865 19.2895C72.7198 19.3688 72.737 19.4539 72.737 19.5399C72.737 19.6259 72.7198 19.7111 72.6865 19.7904C72.6532 19.8697 72.6044 19.9415 72.5429 20.0017L68.004 24.3559C67.8829 24.476 67.7193 24.5433 67.5488 24.5433C67.3783 24.5433 67.2147 24.476 67.0936 24.3559C67.0318 24.2946 66.9827 24.2216 66.9492 24.1412C66.9157 24.0608 66.8984 23.9746 66.8984 23.8875C66.8984 23.8004 66.9157 23.7142 66.9492 23.6338C66.9827 23.5534 67.0318 23.4804 67.0936 23.4191L71.6325 18.9857C71.6983 18.932 71.7741 18.8917 71.8555 18.8672C71.9369 18.8427 72.0223 18.8346 72.1069 18.8431C72.1914 18.8517 72.2735 18.8769 72.3483 18.9172C72.4231 18.9575 72.4893 19.0122 72.5429 19.0781Z"
            fill="#147BD1"
        ></path>
        <path
            d="M67.0936 66.58C67.0318 66.6413 66.9827 66.7143 66.9492 66.7947C66.9157 66.8751 66.8984 66.9613 66.8984 67.0484C66.8984 67.1355 66.9157 67.2217 66.9492 67.3021C66.9827 67.3825 67.0318 67.4555 67.0936 67.5168L71.6325 71.9502C71.7595 72.0574 71.9222 72.1128 72.0883 72.1052C72.2543 72.0977 72.4113 72.0277 72.528 71.9094C72.6447 71.791 72.7124 71.633 72.7176 71.4669C72.7228 71.3008 72.6652 71.1388 72.5561 71.0134L68.004 66.58C67.8829 66.4599 67.7193 66.3926 67.5488 66.3926C67.3783 66.3926 67.2147 66.4599 67.0936 66.58Z"
            fill="#3AABD8"
        ></path>
        <path
            d="M18.446 19.0773C18.3846 19.1375 18.3358 19.2093 18.3024 19.2886C18.2691 19.3679 18.252 19.453 18.252 19.5391C18.252 19.6251 18.2691 19.7102 18.3024 19.7895C18.3358 19.8688 18.3846 19.9407 18.446 20.0009L22.9849 24.3551C23.1047 24.4673 23.2628 24.5298 23.427 24.5298C23.5911 24.5298 23.7492 24.4673 23.869 24.3551C23.9308 24.2937 23.9799 24.2208 24.0134 24.1404C24.0469 24.06 24.0641 23.9738 24.0641 23.8867C24.0641 23.7996 24.0469 23.7133 24.0134 23.633C23.9799 23.5526 23.9308 23.4796 23.869 23.4183L19.33 18.9849C19.1988 18.8843 19.0341 18.8379 18.8696 18.8551C18.7052 18.8722 18.5536 18.9518 18.446 19.0773Z"
            fill="#147BD1"
        ></path>
        <path
            d="M67.2907 30.4401C67.7789 29.213 68.2671 27.9727 68.7421 26.7324L65.3642 29.0942C64.7705 27.7748 64.401 27.0755 64.2295 27.1283C64.058 27.181 64.0976 27.8012 64.2295 29.0283C64.4934 29.8068 64.7705 30.572 65.0476 31.3373C65.3511 32.8547 65.5094 34.1082 65.6018 34.979C65.9448 38.2381 65.7205 39.8478 66.842 41.5763C67.2064 42.1045 67.6516 42.5721 68.1615 42.9617L71.5657 42.7242C71.394 41.571 71.1021 40.4389 70.6948 39.3464C69.5865 36.4172 68.1615 35.2033 67.4886 32.129C67.3815 31.5716 67.3153 31.0071 67.2907 30.4401Z"
            fill="#FF9E94"
        ></path>
        <path
            d="M67.8464 48.5823C67.8464 47.0121 68.0047 44.9142 68.2554 42.4336L71.62 42.5523C71.7256 43.6871 71.8443 44.7954 71.9631 45.9301V46.5899C72.1082 48.1072 72.2665 49.6246 72.4117 51.1288L70.0499 58.1747C69.8438 58.1053 69.6484 58.0076 69.4693 57.8844C68.3214 57.1323 67.6089 55.3642 67.8464 48.5823Z"
            fill="#FF9E94"
        ></path>
        <path
            d="M67.9766 46.5894C69.296 46.3519 70.6155 46.1408 71.9349 45.9297V46.5894L71.196 46.7741L67.9766 46.5894Z"
            fill="#190404"
        ></path>
        <path
            d="M66.6191 46.6536L72.4379 46.3633L73.0185 53.4488C72.781 56.4835 71.3164 58.3571 70.0893 58.3175C69.1657 58.3175 68.4532 57.1828 68.1761 56.6946C67.833 55.4895 67.5296 54.1701 67.2657 52.7362C66.9043 50.7269 66.6882 48.694 66.6191 46.6536Z"
            fill="#F4C738"
        ></path>
        <path
            d="M28.1175 77.4917C27.7099 77.6817 27.3173 77.9022 26.9431 78.1515C26.6954 78.3361 26.4657 78.5438 26.257 78.7716C26.1577 78.8917 26.0473 79.0022 25.9272 79.1015L25.7952 79.1938C25.366 79.3303 24.905 79.3303 24.4758 79.1938C23.5961 76.423 22.7429 73.6521 21.916 70.8813C22.0409 70.8443 22.1738 70.8443 22.2987 70.8813C22.6021 71.0132 22.6813 71.3959 22.7737 71.6993C22.866 72.0028 23.3278 72.5306 23.4466 73.0188C23.5653 73.507 24.2778 74.3383 26.5737 75.341L27.8272 75.816C27.9195 76.4098 28.0119 76.9508 28.1175 77.4917Z"
            fill="#FF9E94"
        ></path>
        <path
            d="M26.3477 75.8139L26.981 78.0174C29.31 78.0731 31.6403 77.9982 33.9609 77.7931C39.8325 77.2785 41.2443 76.3153 41.8776 75.8403C42.5061 75.2828 43.167 74.7629 43.8568 74.2834C44.9494 73.5535 46.1172 72.943 47.3402 72.4625L43.9756 68.1875C42.0492 69.1111 40.0172 70.0347 38.0248 70.9452C34.0137 72.7924 30.1213 74.4021 26.3477 75.8139Z"
            fill="#FF9E94"
        ></path>
        <path
            d="M26.995 78.0722C26.9988 78.0984 26.9988 78.1251 26.995 78.1514C26.8028 78.5354 26.4994 78.8527 26.1242 79.0618C26.0373 79.1164 25.9443 79.1607 25.8471 79.1937C25.4179 79.3302 24.9569 79.3302 24.5277 79.1937C24.2383 79.124 23.9621 79.0082 23.7096 78.8507C22.8784 76.2118 22.0207 73.4673 21.1895 70.7756C21.3576 70.6158 21.5778 70.5221 21.8096 70.5117C22.7596 70.5117 23.1291 72.1742 24.8443 73.8763C25.2452 74.2937 25.6873 74.6695 26.1638 74.9979C26.3221 74.8659 26.6784 74.6152 26.7971 74.7076C26.9159 74.7999 26.7971 75.1034 26.6784 75.3673L26.5332 75.5652C26.0714 76.2118 25.4117 76.1326 25.3193 76.4493C25.227 76.7659 25.4645 77.1354 26.995 78.0722Z"
            fill="#F4C738"
        ></path>
        <path
            d="M27.8276 78.9289L27.2734 75.4719L44.1756 68.1094C44.3477 68.4371 44.4848 68.7821 44.5847 69.1385C45.014 70.8646 44.7883 72.6886 43.9513 74.258C43.648 74.691 43.3081 75.0971 42.9354 75.4719C40.7187 77.7018 37.9742 78.2032 35.2693 78.665C32.8117 79.0853 30.3088 79.1741 27.8276 78.9289Z"
            fill="#190404"
        ></path>
        <path
            d="M65.8531 73.6113C63.4253 71.9356 60.3378 72.2918 58.9524 74.2314C57.567 76.171 58.4378 79.219 60.8788 80.8287C63.3198 82.4384 66.3941 82.1481 67.7663 80.2085C69.1386 78.2689 68.2941 75.2738 65.8531 73.6113Z"
            fill="#FF9E94"
        ></path>
        <path
            d="M45.3221 66.2224C44.702 67.014 45.9291 69.4286 48.6076 71.896C52.6979 74.6757 56.7662 77.4685 60.8125 80.2745L66.4202 73.7433C64.9482 72.5614 63.3664 71.5231 61.6966 70.6425C57.4875 68.3863 45.9027 65.4703 45.3221 66.2224Z"
            fill="#FF9E94"
        ></path>
        <path
            d="M67.1724 79.0344C66.8121 79.7712 66.3058 80.4271 65.6844 80.9624C65.0629 81.4976 64.3392 81.9011 63.5571 82.1483C63.197 82.1189 62.8396 82.0615 62.4884 81.9767L60.9446 80.9871L46.6945 71.9225C46.8139 70.778 46.7063 69.6212 46.3778 68.5183C46.1387 67.7019 45.7832 66.9242 45.3223 66.2093C45.5128 66.0842 45.7222 65.9907 45.9424 65.9322H46.0876C46.315 65.8976 46.5463 65.8976 46.7737 65.9322C50.9451 66.7549 55.0575 67.8525 59.0842 69.2176L62.1981 70.3128C66.4599 72.1468 68.2808 76.2503 67.1724 79.0344Z"
            fill="#190404"
        ></path>
        <path
            d="M36.6278 80.6309C36.3639 81.0147 36.1427 81.4262 35.9681 81.858C35.857 82.1341 35.7773 82.4218 35.7306 82.7157C35.722 82.8702 35.6863 83.0221 35.6251 83.1643C35.5612 83.3631 35.458 83.5471 35.3216 83.7053L33.4875 83.1511L27.9062 78.3747C28.0076 78.2867 28.1306 78.2275 28.2625 78.2031C28.5924 78.2031 28.8695 78.4406 29.107 78.6385C29.3445 78.8365 30.0174 79.0476 30.4264 79.3906C30.8354 79.7337 31.8646 80.1163 34.3056 79.6809L35.6251 79.417C35.8758 79.7733 36.2452 80.2351 36.6278 80.6309Z"
            fill="#FF9E94"
        ></path>
        <path
            d="M65.2734 50.0335C65.2734 50.7196 65.2734 51.353 65.2734 52.1315C65.2734 53.2398 65.2734 54.3613 65.2734 55.4829H70.2214C69.9223 53.143 69.6144 50.8076 69.2978 48.4766C68.5286 48.8957 67.7253 49.2489 66.8964 49.5321C66.3686 49.7432 65.8012 49.9016 65.2734 50.0335Z"
            fill="#FF9E94"
        ></path>
        <path
            d="M65.2734 50.0321C65.2734 50.7182 65.2734 51.3516 65.2734 52.1301C66.2103 52.1301 66.9492 50.9557 66.9492 49.5703C66.4082 49.7023 65.8408 49.8606 65.2734 50.0321Z"
            fill="#190404"
        ></path>
        <path
            d="M62.0136 80.1698L69.6269 73.9551C70.0843 70.8236 70.5505 67.6877 71.0255 64.5474C71.8765 62.3118 72.1664 59.9016 71.8699 57.5279C71.6591 56.5418 71.3081 55.5909 70.8276 54.7043C70.5332 54.196 70.1884 53.7185 69.7984 53.2793L66.0907 53.9786C65.6817 54.1897 61.2087 56.7627 61.2483 60.7606C61.242 61.3936 61.3446 62.0229 61.5518 62.621C61.5518 64.6662 61.6442 66.7245 61.6969 68.7829C61.7849 72.5917 61.8905 76.3874 62.0136 80.1698Z"
            fill="#FF9E94"
        ></path>
        <path
            d="M34.252 80.2095L35.9672 81.7268C37.9661 80.5165 39.8956 79.1949 41.7465 77.7685C46.4305 74.1927 47.1166 72.6226 47.3673 71.8969C47.6063 71.0951 47.8882 70.3066 48.2118 69.5351C48.7605 68.3379 49.4469 67.2088 50.2569 66.1705L45.1243 64.3496C43.9763 66.1705 42.7888 68.0045 41.5617 69.8781C39.1075 73.511 36.671 76.9548 34.252 80.2095Z"
            fill="#FF9E94"
        ></path>
        <path
            d="M64.5866 50.3108C66.1852 50.5091 67.8052 50.1851 69.2047 49.3872C69.7869 49.0809 70.2872 48.6394 70.6637 48.1C71.0402 47.5605 71.2819 46.9386 71.3686 46.2865C71.403 45.697 71.302 45.1075 71.0733 44.5632C70.8446 44.0188 70.4942 43.5341 70.0491 43.1462C69.4107 42.534 68.5856 42.1533 67.7055 42.0648C66.8254 41.9763 65.941 42.1851 65.1935 42.658C65.0666 42.7846 64.9558 42.9264 64.8636 43.0802C64.2039 44.1885 63.9136 44.6767 63.8872 44.7031C63.8856 44.7339 63.8856 44.7647 63.8872 44.7955C63.8819 44.8216 63.8819 44.8485 63.8872 44.8746V45.3892C63.7029 45.923 63.4915 46.4471 63.2539 46.9594C63.1088 47.2101 63.056 47.3024 63.0692 47.408C63.0824 47.5136 63.0692 47.474 63.0692 47.4872C63.0692 47.5004 62.9768 47.4872 62.9372 47.4872C62.8977 47.4872 62.9372 47.6983 62.9372 47.7247C62.9372 47.7511 63.0296 47.9754 63.1879 48.0018C63.2316 48.0089 63.2762 48.0089 63.3199 48.0018C63.3199 48.0018 63.0032 48.0018 62.9636 48.1205C62.924 48.2393 62.9636 48.2261 62.9636 48.2525C62.9824 48.2855 63.0098 48.3128 63.0428 48.3316C63.122 48.4504 62.6602 49.0309 62.6602 49.3212C62.6602 49.6115 63.6234 50.1657 64.5866 50.3108Z"
            fill="#FF9E94"
        ></path>
        <path
            d="M62.6594 46.4047C62.6486 46.4805 62.6549 46.5577 62.6777 46.6308C62.7005 46.7038 62.7394 46.7708 62.7914 46.827C62.8899 46.9596 63.0288 47.0569 63.1872 47.1041C63.2346 47.093 63.2792 47.072 63.3178 47.0424C63.3565 47.0129 63.3884 46.9754 63.4115 46.9325C63.4115 46.8534 63.4115 46.7874 63.4115 46.6686C63.4281 46.5524 63.484 46.4453 63.5699 46.3652C63.6754 46.0089 63.7678 45.6527 63.8733 45.2832L63.4379 45.6922C63.0949 46.0221 63.1081 46.0353 63.0025 46.1013C62.8969 46.1672 62.699 46.286 62.6594 46.4047Z"
            fill="#FF9E94"
        ></path>
        <path
            d="M65.6681 46.1536C65.6343 46.1536 65.6012 46.1436 65.573 46.1248C65.5448 46.106 65.5228 46.0793 65.5098 46.048C65.4513 45.8775 65.3405 45.7298 65.1931 45.6258C65.0818 45.5518 64.9557 45.5028 64.8235 45.4823C64.6914 45.4618 64.5564 45.4703 64.4279 45.5071C64.4072 45.5165 64.3847 45.5215 64.3619 45.5215C64.3391 45.5215 64.3166 45.5165 64.2959 45.5071C64.2875 45.4884 64.2832 45.4681 64.2832 45.4477C64.2832 45.4272 64.2875 45.407 64.2959 45.3883V45.0584C64.2922 45.0366 64.293 45.0143 64.2985 44.9928C64.3039 44.9713 64.3138 44.9513 64.3275 44.9339C64.3411 44.9164 64.3583 44.9021 64.3779 44.8917C64.3974 44.8814 64.419 44.8752 64.441 44.8737C64.4845 44.8699 64.5278 44.8827 64.5622 44.9097C64.5965 44.9367 64.6192 44.9757 64.6258 45.0189V45.1772C64.9039 45.1311 65.1893 45.1854 65.4311 45.3304C65.6728 45.4755 65.8551 45.7018 65.9452 45.9689C65.958 46.0109 65.9542 46.0562 65.9345 46.0955C65.9149 46.1347 65.8809 46.165 65.8397 46.18L65.6681 46.1536Z"
            fill="#190404"
        ></path>
        <path
            d="M64.3496 45.4678C64.3327 45.5119 64.3248 45.559 64.3264 45.6062C64.3279 45.6535 64.3388 45.6999 64.3584 45.7429C64.3781 45.7859 64.4061 45.8245 64.4408 45.8566C64.4755 45.8886 64.5163 45.9134 64.5607 45.9296C64.6517 45.9538 64.7485 45.941 64.8301 45.8941C64.9117 45.8471 64.9714 45.7697 64.9961 45.6789C65.013 45.6347 65.0209 45.5877 65.0193 45.5404C65.0178 45.4932 65.0069 45.4467 64.9873 45.4038C64.9676 45.3608 64.9396 45.3221 64.9049 45.2901C64.8702 45.258 64.8294 45.2332 64.785 45.2171C64.694 45.1929 64.5972 45.2056 64.5156 45.2526C64.434 45.2996 64.3743 45.3769 64.3496 45.4678Z"
            fill="#190404"
        ></path>
        <path
            d="M66.3158 45.2422C66.2219 45.1764 66.1199 45.1232 66.0123 45.0838C65.5031 44.9259 64.975 44.8372 64.4421 44.8199C64.3969 44.6873 64.3969 44.5435 64.4421 44.4109C64.4785 44.2932 64.5471 44.1881 64.6401 44.1074C64.9829 44.2377 65.3359 44.3393 65.6956 44.4109C65.9286 44.4617 66.1516 44.5509 66.3553 44.6748C66.4419 44.715 66.5151 44.7791 66.5665 44.8595C66.6273 44.9518 66.6681 45.0559 66.6863 45.165C66.7045 45.2741 66.6996 45.3858 66.672 45.4928C66.5588 45.4017 66.4398 45.3179 66.3158 45.2422Z"
            fill="#190404"
        ></path>
        <path
            d="M63.9801 48.3713L63.1093 48.1998C63.066 48.1902 63.028 48.1643 63.0034 48.1274C62.9788 48.0905 62.9695 48.0455 62.9773 48.0018C62.9869 47.9585 63.0128 47.9206 63.0497 47.896C63.0866 47.8714 63.1316 47.862 63.1752 47.8699L64.0197 48.0546C64.0406 48.0578 64.0607 48.0652 64.0787 48.0762C64.0967 48.0873 64.1124 48.1019 64.1247 48.1191C64.137 48.1363 64.1457 48.1559 64.1503 48.1765C64.155 48.1972 64.1554 48.2185 64.1516 48.2393C64.1406 48.2766 64.118 48.3094 64.0872 48.3331C64.0564 48.3568 64.0189 48.3701 63.9801 48.3713Z"
            fill="#190404"
        ></path>
        <path
            d="M63.5574 48.2255C63.541 48.2337 63.5229 48.2379 63.5046 48.2379C63.4863 48.2379 63.4682 48.2337 63.4518 48.2255L62.8845 47.6582C62.8697 47.6435 62.858 47.626 62.85 47.6067C62.842 47.5875 62.8379 47.5669 62.8379 47.546C62.8379 47.5252 62.842 47.5046 62.85 47.4853C62.858 47.4661 62.8697 47.4486 62.8845 47.4339C62.8981 47.4173 62.9152 47.4039 62.9346 47.3948C62.954 47.3856 62.9752 47.3809 62.9966 47.3809C63.0181 47.3809 63.0392 47.3856 63.0586 47.3948C63.078 47.4039 63.0951 47.4173 63.1088 47.4339L63.6629 47.988C63.6936 48.02 63.7107 48.0625 63.7107 48.1068C63.7107 48.1511 63.6936 48.1936 63.6629 48.2255C63.6463 48.2328 63.6283 48.2366 63.6102 48.2366C63.592 48.2366 63.574 48.2328 63.5574 48.2255Z"
            fill="#190404"
        ></path>
        <path
            d="M53.1202 37.9082L50.798 38.3568C50.798 39.8874 50.6924 41.1409 50.6133 42.0249C50.257 45.6006 49.782 46.9729 50.4945 48.6222C50.8739 49.5028 51.4628 50.2773 52.2098 50.8784L54.8487 49.9152C54.8673 49.0332 54.8188 48.151 54.7036 47.2763C54.2681 44.0305 53.0674 42.6187 53.0279 39.5707C53.0133 39.015 53.0442 38.4589 53.1202 37.9082Z"
            fill="#FF9E94"
        ></path>
        <path
            d="M53.1086 39.9789L51.1954 40.322C50.6148 39.4643 50.1926 38.831 49.8759 38.5011C49.7283 38.3273 49.6283 38.1182 49.5856 37.8942C49.5652 37.7719 49.5652 37.647 49.5856 37.5247C49.5977 37.4118 49.6243 37.301 49.6648 37.1949C50.1724 36.6173 50.8372 36.2001 51.578 35.9942C51.578 35.915 52.3829 35.0442 52.7787 36.2185C52.8843 36.5352 53.0294 36.9706 53.1614 37.5379C52.9817 37.3783 52.8588 37.1645 52.8112 36.9289C52.7636 36.6933 52.7938 36.4486 52.8975 36.2317C52.9634 36.1261 53.1086 35.9678 53.2405 35.9942C53.3725 36.0206 53.6232 36.39 53.6759 37.815L53.3725 38.5539L53.1086 39.9789Z"
            fill="#FF9E94"
        ></path>
        <path
            d="M53.1075 37.8412C53.067 37.8392 53.0282 37.8239 52.9972 37.7977C52.9662 37.7715 52.9447 37.7357 52.936 37.696L52.7117 36.2314C52.7038 36.1878 52.7132 36.1428 52.7378 36.1059C52.7624 36.069 52.8003 36.0431 52.8436 36.0335C52.8655 36.0298 52.8878 36.0307 52.9093 36.0361C52.9307 36.0415 52.9508 36.0514 52.9682 36.0651C52.9856 36.0788 53 36.0959 53.0103 36.1155C53.0207 36.1351 53.0268 36.1566 53.0284 36.1787L53.2659 37.5905C53.2737 37.6341 53.2644 37.6791 53.2398 37.716C53.2152 37.7529 53.1772 37.7789 53.1339 37.7884L53.1075 37.8412Z"
            fill="#190404"
        ></path>
        <path
            d="M53.3457 37.9731H53.2665L53.0554 37.8412C53.0285 37.81 53.0137 37.7702 53.0137 37.729C53.0137 37.6878 53.0285 37.648 53.0554 37.6169C53.0701 37.6021 53.0876 37.5904 53.1069 37.5824C53.1261 37.5744 53.1467 37.5703 53.1676 37.5703C53.1884 37.5703 53.209 37.5744 53.2283 37.5824C53.2475 37.5904 53.265 37.6021 53.2797 37.6169L53.4776 37.7488C53.4924 37.7635 53.5041 37.781 53.5121 37.8003C53.5201 37.8195 53.5242 37.8401 53.5242 37.861C53.5242 37.8818 53.5201 37.9025 53.5121 37.9217C53.5041 37.9409 53.4924 37.9584 53.4776 37.9731C53.4352 37.9894 53.3882 37.9894 53.3457 37.9731Z"
            fill="#190404"
        ></path>
        <path
            d="M51.577 36.7461C51.535 36.7461 51.4948 36.7294 51.4651 36.6997C51.4354 36.67 51.4187 36.6297 51.4187 36.5877V36.0468C51.4114 36.0212 51.4101 35.9944 51.415 35.9683C51.4199 35.9422 51.4307 35.9176 51.4467 35.8964C51.4627 35.8752 51.4834 35.858 51.5071 35.8461C51.5309 35.8343 51.5571 35.8281 51.5836 35.8281C51.6102 35.8281 51.6364 35.8343 51.6601 35.8461C51.6839 35.858 51.7046 35.8752 51.7206 35.8964C51.7366 35.9176 51.7474 35.9422 51.7523 35.9683C51.7571 35.9944 51.7559 36.0212 51.7486 36.0468V36.5877C51.7455 36.6322 51.7264 36.6741 51.6949 36.7056C51.6634 36.7371 51.6215 36.7562 51.577 36.7593V36.7461Z"
            fill="#190404"
        ></path>
        <path
            d="M50.9303 36.9177C50.8905 36.9179 50.8521 36.903 50.8228 36.8761C50.7934 36.8492 50.7753 36.8123 50.772 36.7726V36.4163C50.768 36.3952 50.7689 36.3734 50.7744 36.3527C50.7799 36.3319 50.79 36.3126 50.8039 36.2962C50.8178 36.2798 50.8351 36.2666 50.8547 36.2578C50.8743 36.2489 50.8956 36.2445 50.9171 36.2448C50.9606 36.241 51.0039 36.2538 51.0382 36.2808C51.0725 36.3078 51.0953 36.3468 51.1018 36.39V36.7462C51.1036 36.7681 51.1009 36.7901 51.0938 36.8109C51.0866 36.8316 51.0753 36.8507 51.0604 36.8668C51.0455 36.8829 51.0274 36.8958 51.0073 36.9046C50.9872 36.9133 50.9654 36.9178 50.9435 36.9177H50.9303Z"
            fill="#190404"
        ></path>
        <path
            d="M50.2575 37.2472C50.2349 37.2472 50.2126 37.2428 50.1918 37.2342C50.171 37.2255 50.1521 37.2129 50.1362 37.197C50.1203 37.181 50.1076 37.1621 50.099 37.1413C50.0904 37.1205 50.0859 37.0982 50.0859 37.0757V36.7194C50.0859 36.6975 50.0904 36.6758 50.0991 36.6556C50.1079 36.6355 50.1208 36.6174 50.1369 36.6025C50.153 36.5876 50.1721 36.5763 50.1928 36.5691C50.2136 36.562 50.2356 36.5593 50.2575 36.5611C50.2794 36.561 50.3011 36.5655 50.3213 36.5743C50.3414 36.583 50.3595 36.5959 50.3744 36.612C50.3893 36.6282 50.4006 36.6472 50.4078 36.668C50.4149 36.6887 50.4176 36.7108 50.4158 36.7326V37.1021C50.4125 37.1417 50.3944 37.1787 50.365 37.2056C50.3357 37.2325 50.2973 37.2474 50.2575 37.2472Z"
            fill="#190404"
        ></path>
        <path
            d="M35.9809 81.7263C35.9867 81.7701 35.9867 81.8145 35.9809 81.8583C35.9424 82.517 35.7528 83.1581 35.4268 83.7319H35.3212L33.4872 83.1777L31.6531 82.6367L27.1934 78.6784C27.2552 78.456 27.3899 78.2608 27.576 78.1242C28.3677 77.5964 29.6343 78.7839 31.9434 79.3513C32.4889 79.4873 33.0451 79.5756 33.6059 79.6152C33.6851 79.4305 33.8434 79.0214 34.0017 79.0346C34.1601 79.0478 34.2129 79.3381 34.2392 79.6548C34.2458 79.7338 34.2458 79.8132 34.2392 79.8923C34.2392 80.6839 33.5795 80.9742 33.6719 81.2909C33.7642 81.6076 34.2129 81.7923 35.9809 81.7263Z"
            fill="#F4C738"
        ></path>
        <path
            d="M65.5094 71.9898C63.1212 70.2745 60.0337 70.4724 58.6087 72.4516C57.1836 74.4308 57.9621 77.4259 60.3635 79.1544C62.7649 80.8829 65.8525 80.6718 67.2643 78.6926C68.6761 76.7134 67.9108 73.7183 65.5094 71.9898Z"
            fill="#FF9E94"
        ></path>
        <path
            d="M45.1636 64.1108C44.5303 64.9025 45.6914 67.3435 48.3171 69.8636L60.3506 78.5324L66.0902 72.1463C64.6452 70.9314 63.0904 69.8536 61.4457 68.9268C57.2762 66.5782 45.7574 63.3851 45.1636 64.1108Z"
            fill="#FF9E94"
        ></path>
        <path
            d="M67.9779 80.8551C67.3751 81.3731 66.6699 81.7582 65.9083 81.9856C65.1468 82.2129 64.3458 82.2773 63.5577 82.1746C63.1976 82.1452 62.8402 82.0879 62.489 82.0031L60.9452 81.0135L48.2125 71.1967L46.1673 66.4467L45.943 65.9321C45.6791 65.3252 45.4284 64.7314 45.1777 64.1245C45.4015 63.9664 45.659 63.8625 45.9298 63.821C46.1607 63.7758 46.3982 63.7758 46.6291 63.821C50.7736 64.7359 54.8548 65.917 58.8473 67.3571C59.4146 67.5814 60.5098 68.0037 61.948 68.5314C66.4341 69.8509 69.5217 72.9912 69.68 76.303C69.7438 77.1399 69.6247 77.9806 69.3307 78.7667C69.0368 79.5528 68.5751 80.2655 67.9779 80.8551Z"
            fill="#190404"
        ></path>
        <path
            d="M37.1426 82.0041L34.8203 79.3652L45.1648 64.0859C45.4845 64.2765 45.7849 64.4974 46.0621 64.7457C47.3506 65.9753 48.136 67.6401 48.2656 69.4165C48.2436 69.9453 48.1729 70.4709 48.0544 70.9867C47.3815 74.0478 45.3232 75.9478 43.2912 77.7819C41.4368 79.4543 39.3693 80.874 37.1426 82.0041Z"
            fill="#190404"
        ></path>
        <path
            d="M35.4007 78.7056C35.386 78.7118 35.3703 78.715 35.3545 78.715C35.3386 78.715 35.3229 78.7118 35.3083 78.7056C35.2935 78.6909 35.2818 78.6735 35.2738 78.6542C35.2658 78.635 35.2617 78.6143 35.2617 78.5935C35.2617 78.5727 35.2658 78.552 35.2738 78.5328C35.2818 78.5135 35.2935 78.496 35.3083 78.4813L41.8132 69.0868C41.8451 69.0562 41.8877 69.0391 41.932 69.0391C41.9762 69.0391 42.0188 69.0562 42.0507 69.0868C42.0776 69.118 42.0924 69.1578 42.0924 69.199C42.0924 69.2402 42.0776 69.28 42.0507 69.3111L35.5326 78.7056C35.5122 78.7161 35.4896 78.7215 35.4666 78.7215C35.4437 78.7215 35.4211 78.7161 35.4007 78.7056Z"
            fill="#727272"
        ></path>
        <path
            d="M47.724 72.6358C47.6987 72.6251 47.6761 72.6089 47.6578 72.5883C47.6395 72.5678 47.6261 72.5434 47.6184 72.517L47.2094 71.1976C47.1972 71.1538 47.2029 71.1071 47.2252 71.0675C47.2474 71.0279 47.2845 70.9988 47.3282 70.9865C47.349 70.9806 47.3708 70.979 47.3922 70.9818C47.4136 70.9847 47.4343 70.9919 47.4528 71.003C47.4714 71.0142 47.4874 71.029 47.5 71.0465C47.5126 71.0641 47.5215 71.0841 47.5261 71.1052L47.9351 72.4247C47.9433 72.4454 47.9471 72.4676 47.9461 72.4899C47.9451 72.5121 47.9395 72.5339 47.9295 72.5538C47.9196 72.5738 47.9055 72.5914 47.8883 72.6055C47.8711 72.6196 47.851 72.6299 47.8296 72.6358H47.724Z"
            fill="#727272"
        ></path>
        <path
            d="M47.8036 72.1075C47.6717 72.1075 47.6189 71.9887 47.6453 71.8963L47.8036 71.2366C47.8158 71.1948 47.8423 71.1587 47.8785 71.1345C47.9147 71.1104 47.9583 71.0998 48.0015 71.1047C48.0452 71.117 48.0823 71.1461 48.1045 71.1857C48.1268 71.2253 48.1325 71.272 48.1203 71.3158L47.9619 71.9755C47.9516 72.0107 47.9311 72.0421 47.9029 72.0656C47.8747 72.0891 47.8401 72.1037 47.8036 72.1075Z"
            fill="#727272"
        ></path>
        <path
            d="M63.2792 70.0625C63.2411 70.0779 63.1986 70.0779 63.1605 70.0625L62.0653 68.7431C62.0347 68.7111 62.0176 68.6686 62.0176 68.6243C62.0176 68.58 62.0347 68.5375 62.0653 68.5056C62.08 68.4908 62.0975 68.4791 62.1168 68.4711C62.136 68.4631 62.1566 68.459 62.1775 68.459C62.1983 68.459 62.219 68.4631 62.2382 68.4711C62.2574 68.4791 62.2749 68.4908 62.2896 68.5056L63.3848 69.825C63.3995 69.8397 63.4113 69.8572 63.4192 69.8764C63.4272 69.8957 63.4314 69.9163 63.4314 69.9372C63.4314 69.958 63.4272 69.9786 63.4192 69.9979C63.4113 70.0171 63.3995 70.0346 63.3848 70.0493C63.3525 70.0669 63.3148 70.0716 63.2792 70.0625Z"
            fill="#727272"
        ></path>
        <path
            d="M71.1034 75.1543C70.668 76.1571 70.3513 76.4738 69.9687 76.6189C67.0923 77.9384 60.97 70.4439 58.8457 67.6994L61.4846 58.9778C61.4846 58.0806 61.4846 57.1834 61.577 56.3389L65.311 54.4389L70.1006 53.3438C70.4864 53.9026 70.8304 54.4892 71.1298 55.0986C71.9273 56.8559 72.3755 58.7515 72.4493 60.6799C73.1486 69.4939 71.9347 73.1751 71.1034 75.1543Z"
            fill="#F4C738"
        ></path>
        <path
            d="M69.8128 42.1168C71.1323 43.3702 72.0955 44.3862 71.9899 45.8508C71.8135 46.8735 71.2919 47.8049 70.5121 48.4897C70.1163 48.9515 69.7204 49.387 69.4302 49.2946C68.7704 49.0703 69.3114 46.405 68.6385 46.2203C68.2822 46.1279 67.9656 46.7744 67.6489 46.6557C67.1211 46.4578 67.794 44.571 66.8572 43.7133C66.5306 43.4668 66.1512 43.2997 65.7489 43.2251C64.8385 42.9612 64.4294 43.2251 64.1787 42.8557C63.928 42.4862 64.1787 41.7209 64.403 41.3515C64.403 41.2591 64.8121 40.7445 65.1419 40.8105C65.4718 40.8765 65.4058 41.2195 65.6961 41.2987C65.9864 41.3779 66.2239 41.0084 66.6857 41.0084C67.1475 41.0084 67.042 41.2855 67.385 41.3119C67.7281 41.3383 67.8336 41.18 68.0051 41.1272C68.1767 41.0744 68.7308 41.0216 69.8128 42.1168Z"
            fill="#190404"
        ></path>
        <path
            d="M59.3096 51.0362C57.9902 50.2181 56.1561 49.1757 53.9262 48.041L52.2109 50.9306L54.8498 53.0417L55.3644 53.464L58.9402 56.314L66.1708 58.1085C66.1973 57.8938 66.1973 57.6766 66.1708 57.4619C66.2367 56.0237 65.1284 54.5195 59.3096 51.0362Z"
            fill="#FF9E94"
        ></path>
        <path
            d="M57.5677 50.0723C56.6573 51.0487 55.7468 52.0383 54.8496 53.041L55.5885 53.6744C55.5523 53.5176 55.5758 53.3529 55.6545 53.2126C55.7125 53.0991 55.8049 53.0067 55.9184 52.9487C56.4725 51.9855 57.0267 51.0355 57.5677 50.0723Z"
            fill="#190404"
        ></path>
        <path
            d="M57.633 49.9663C56.5774 51.708 55.5087 53.4497 54.4531 55.2441L60.8129 59.981C63.4518 60.7067 65.6685 59.7171 66.2227 58.1997C66.3364 57.783 66.3658 57.3478 66.3091 56.9196C66.2525 56.4914 66.1109 56.0788 65.8928 55.7059C63.8096 52.9475 60.8957 50.9309 57.5802 49.9531L57.633 49.9663Z"
            fill="#F4C738"
        ></path>
        <path
            d="M60.4297 80.3281C60.4 80.3393 60.3672 80.3393 60.3374 80.3281L48.3171 72.517C48.2902 72.4858 48.2754 72.446 48.2754 72.4048C48.2754 72.3636 48.2902 72.3238 48.3171 72.2927C48.3318 72.2779 48.3493 72.2662 48.3686 72.2582C48.3878 72.2502 48.4085 72.2461 48.4293 72.2461C48.4501 72.2461 48.4708 72.2502 48.49 72.2582C48.5093 72.2662 48.5267 72.2779 48.5414 72.2927L60.5617 80.1038C60.5896 80.1371 60.6049 80.1791 60.6049 80.2226C60.6049 80.266 60.5896 80.3081 60.5617 80.3413C60.5174 80.3512 60.4712 80.3466 60.4297 80.3281Z"
            fill="#727272"
        ></path>
        <path
            d="M62.3442 61.3009C62.3102 61.3142 62.2726 61.3142 62.2386 61.3009L60.8136 59.9815C60.7898 59.9498 60.7777 59.9108 60.7795 59.8712C60.7812 59.8315 60.7966 59.7937 60.823 59.7642C60.8494 59.7346 60.8853 59.7152 60.9245 59.7091C60.9637 59.703 61.0037 59.7106 61.0379 59.7308L62.4365 61.0502C62.4534 61.0651 62.4669 61.0834 62.4761 61.1038C62.4854 61.1243 62.4901 61.1465 62.4901 61.169C62.4901 61.1915 62.4854 61.2137 62.4761 61.2341C62.4669 61.2546 62.4534 61.2729 62.4365 61.2877C62.4084 61.3032 62.3755 61.3079 62.3442 61.3009Z"
            fill="#190404"
        ></path>
        <path
            d="M66.975 55.8247H66.8958L65.0749 54.6371C65.048 54.606 65.0332 54.5662 65.0332 54.525C65.0332 54.4838 65.048 54.444 65.0749 54.4128C65.1061 54.3859 65.1459 54.3711 65.1871 54.3711C65.2283 54.3711 65.2681 54.3859 65.2993 54.4128L67.1069 55.5872C67.1375 55.6191 67.1547 55.6616 67.1547 55.7059C67.1547 55.7502 67.1375 55.7927 67.1069 55.8247C67.1069 55.8247 67.0409 55.8247 66.975 55.8247Z"
            fill="#190404"
        ></path>
        <path
            d="M72.0294 55.6414C72.0087 55.6509 71.9862 55.6558 71.9634 55.6558C71.9406 55.6558 71.9182 55.6509 71.8975 55.6414L70.3669 53.649C70.3521 53.6343 70.3404 53.6168 70.3324 53.5976C70.3244 53.5783 70.3203 53.5577 70.3203 53.5369C70.3203 53.516 70.3244 53.4954 70.3324 53.4761C70.3404 53.4569 70.3521 53.4394 70.3669 53.4247C70.3817 53.4079 70.4 53.3944 70.4205 53.3851C70.441 53.3759 70.4632 53.3711 70.4856 53.3711C70.5081 53.3711 70.5303 53.3759 70.5508 53.3851C70.5713 53.3944 70.5895 53.4079 70.6044 53.4247L72.135 55.4171C72.1629 55.4503 72.1782 55.4924 72.1782 55.5358C72.1782 55.5793 72.1629 55.6213 72.135 55.6546L72.0294 55.6414Z"
            fill="#190404"
        ></path>
    </g>
    <defs>
        <clipPath id="clip0_1411_6469">
            <rect width="90" height="90" fill="white"></rect>
        </clipPath>
    </defs>
</svg>
