<svg width="24" height="24" viewBox="0 0 24 24" fill="none" xmlns="http://www.w3.org/2000/svg">
<path d="M12 14.7V3M12 3L14.7 6.15M12 3L9.30005 6.15" stroke="#1C222B" stroke-width="1.5" strokeLinecap="round" stroke-linejoin="round"/>
<path d="M8.4 21H15.6C18.1452 21 19.4187 21 20.2089 20.2098C21 19.4178 21 18.1461 21 15.6V14.7C21 12.1548 21 10.8822 20.2089 10.0911C19.5177 9.39986 18.4575 9.31256 16.5 9.30176M7.5 9.30176C5.5425 9.31256 4.4823 9.39986 3.7911 10.0911C3 10.8822 3 12.1548 3 14.7V15.6C3 18.1461 3 19.4187 3.7911 20.2098C4.0611 20.4798 4.3869 20.6571 4.8 20.7741" stroke="#1C222B" stroke-width="1.5" strokeLinecap="round"/>
</svg>
